# xmcd
#
# Track frame offsets:
#	150
#	14090
#	30379
#	52709
#	71822
#	88763
#	106064
#	123910
#	140794
#	163763
#	182100
#	198851
#	216162
#	230949
#	250869
#	269647
#	287095
#	301929
#	326295
#	344632
#
# Disc length: 4769 seconds
#
# Revision: 1
# Processed by: cddbd v1.4PL0 Copyright (c) Steve Scherf et al.
# Submitted via: audiograbber 1.81.03
#
DISCID=2f129f14
DTITLE=Валерия - Часики
DYEAR=2003
DGENRE=Blues
TTITLE0=Часики
TTITLE1=Была Любовь
TTITLE2=Таю
TTITLE3=Синий, синий иней
TTITLE4=Рига-Москва
TTITLE5=Метелица (Remix)
TTITLE6=Песня для тебя
TTITLE7=Обычные дела
TTITLE8=Жаль
TTITLE9=Осень
TTITLE10=Больше чем жизнь
TTITLE11=Давным-давно
TTITLE12=Пополам
TTITLE13=Ты где-то там
TTITLE14=Самолет
TTITLE15=Мелодия Любви
TTITLE16=Маленький принц
TTITLE17=Не обижай меня
TTITLE18=Обручальная
TTITLE19=Последняя поэма
EXTD=
EXTT0=
EXTT1=
EXTT2=
EXTT3=
EXTT4=
EXTT5=
EXTT6=
EXTT7=
EXTT8=
EXTT9=
EXTT10=
EXTT11=
EXTT12=
EXTT13=
EXTT14=
EXTT15=
EXTT16=
EXTT17=
EXTT18=
EXTT19=
PLAYORDER=
